<svg width="1512" height="3832" viewBox="0 0 1512 3832" fill="none" xmlns="http://www.w3.org/2000/svg">
<path d="M1515.5 4067.47C1495.93 4054.13 -4.00082 4049 -4.00082 4049L-4.00086 483.5C112.536 316.078 594.36 267.097 644.747 262.402C713.352 256.01 782.533 258.526 852.028 261.053C1072.86 269.085 1296.85 277.231 1515.5 -0.000444568L1515.5 1027L1515.5 4067.47ZM1515.5 4067.47L1515.5 4068C1515.61 4067.93 1515.67 4067.85 1515.69 4067.78C1515.71 4067.68 1515.65 4067.57 1515.5 4067.47Z" fill="#D27F38" fill-opacity="0.6"/>
<path d="M1515.5 4067.47C1495.93 4054.13 -4.00082 4049 -4.00082 4049L-4.00086 483.5C112.536 316.078 594.36 267.097 644.747 262.402C713.352 256.01 782.533 258.526 852.028 261.053C1072.86 269.085 1296.85 277.231 1515.5 -0.000444568L1515.5 1027L1515.5 4067.47ZM1515.5 4067.47L1515.5 4068C1515.61 4067.93 1515.67 4067.85 1515.69 4067.78C1515.71 4067.68 1515.65 4067.57 1515.5 4067.47Z" stroke="black"/>
</svg>
